<svg width="22" height="17" viewBox="0 0 22 17" fill="none" xmlns="http://www.w3.org/2000/svg">
<g clip-path="url(#clip0_113_6)">
<path fill-rule="evenodd" clip-rule="evenodd" d="M18.9267 14.6695C18.981 14.6767 19.0353 14.6841 19.0895 14.6917L19.3631 14.7301C20.5539 14.8972 21.6193 13.9896 21.6193 12.808V11.9062C21.6193 11.0612 21.0785 10.3073 20.2683 10.0231C19.3324 9.6948 18.3662 9.48101 17.3909 9.38174C18.4088 10.1177 19.0401 11.3093 19.0401 12.6094V13.729C19.0401 14.0542 19.0007 14.3691 18.9267 14.6695ZM14.8008 8.18219C15.2063 8.34957 15.6518 8.44206 16.1193 8.44206C18.0006 8.44206 19.5257 6.94399 19.5257 5.09603C19.5257 3.24807 18.0006 1.75 16.1193 1.75C16.0637 1.75 16.0085 1.75131 15.9536 1.75389C16.2957 2.48251 16.4869 3.29605 16.4869 4.15426C16.4869 5.73084 15.8416 7.15671 14.8008 8.18219Z" fill="#9CB0FF"/>
<path fill-rule="evenodd" clip-rule="evenodd" d="M2.69239 14.6695C2.6381 14.6767 2.58384 14.6841 2.52959 14.6917L2.25609 14.7301C1.06526 14.8972 -0.000152588 13.9896 -0.000152588 12.808V11.9062C-0.000152588 11.0612 0.540671 10.3073 1.35087 10.0231C2.28673 9.6948 3.25289 9.48101 4.22821 9.38174C3.21037 10.1177 2.57907 11.3093 2.57907 12.6094V13.729C2.57907 14.0542 2.61843 14.3691 2.69239 14.6695ZM6.81836 8.18219C6.41281 8.34957 5.96733 8.44206 5.49985 8.44206C3.61854 8.44206 2.09343 6.94399 2.09343 5.09603C2.09343 3.24807 3.61854 1.75 5.49985 1.75C5.55542 1.75 5.61067 1.75131 5.66559 1.75389C5.32347 2.48251 5.13227 3.29605 5.13227 4.15426C5.13227 5.73084 5.77753 7.15671 6.81836 8.18219Z" fill="#9CB0FF"/>
<path fill-rule="evenodd" clip-rule="evenodd" d="M14.9867 4.15426C14.9867 1.85992 13.1268 0 10.8324 0C8.53811 0 6.67819 1.85992 6.67819 4.15426C6.67819 6.44859 8.53811 8.30851 10.8324 8.30851C13.1268 8.30851 14.9867 6.44859 14.9867 4.15426Z" fill="#9CB0FF"/>
<path fill-rule="evenodd" clip-rule="evenodd" d="M5.77261 10.2715C9.04463 9.10286 12.6203 9.10286 15.8923 10.2715C16.8803 10.6243 17.5399 11.5603 17.5399 12.6094V13.729C17.5399 15.196 16.2406 16.3229 14.7883 16.1154L14.4548 16.0678C12.0521 15.7245 9.6128 15.7245 7.21011 16.0678L6.87656 16.1154C5.42431 16.3229 4.125 15.196 4.125 13.729V12.6094C4.125 11.5603 4.78455 10.6243 5.77261 10.2715Z" fill="#9CB0FF"/>
</g>
<defs>
<clipPath id="clip0_113_6">
<rect width="22" height="17" fill="white"/>
</clipPath>
</defs>
</svg>
