<svg width="22" height="22" viewBox="0 0 22 22" fill="none" xmlns="http://www.w3.org/2000/svg">
<g clip-path="url(#clip0_113_2)">
<path fill-rule="evenodd" clip-rule="evenodd" d="M18.3239 0.0225926C19.9378 -0.188482 21.2678 1.14151 21.0567 2.75538C20.7482 5.11438 19.9011 9.12186 17.5056 11.7047C16.7434 12.5265 15.8228 13.2858 14.876 13.9605L15.1526 15.8969C15.2305 16.4422 15.0471 16.9923 14.6576 17.3818L11.4757 20.5638C10.456 21.5835 8.70975 21.0015 8.50581 19.5739L8.08155 16.604L8.08282 16.6038C7.81187 16.4727 7.56063 16.2953 7.34175 16.0764L5.00289 13.7376C4.784 13.5187 4.60662 13.2674 4.47547 12.9965L4.47528 12.9978L1.50543 12.5735C0.0778481 12.3696 -0.504221 10.6234 0.515483 9.60369L3.69746 6.42171C4.08696 6.03222 4.6371 5.84883 5.18239 5.92673L7.11885 6.20337C7.79349 5.25659 8.55281 4.33593 9.37462 3.57373C11.9575 1.17823 15.9649 0.33112 18.3239 0.0225926ZM2.99038 13.8463C3.28327 14.1392 3.28327 14.6141 2.99038 14.907L1.57617 16.3212C1.28327 16.6141 0.808398 16.6141 0.515505 16.3212C0.222611 16.0283 0.222612 15.5534 0.515505 15.2605L1.92972 13.8463C2.22261 13.5534 2.69749 13.5534 2.99038 13.8463ZM5.1117 15.9676C5.40459 16.2605 5.40459 16.7354 5.1117 17.0283L2.28327 19.8567C1.99038 20.1496 1.5155 20.1496 1.22261 19.8567C0.929718 19.5638 0.929719 19.0889 1.22261 18.7961L4.05104 15.9676C4.34393 15.6747 4.81881 15.6747 5.1117 15.9676ZM7.23302 18.0889C7.52591 18.3818 7.52591 18.8567 7.23302 19.1496L5.81881 20.5638C5.52591 20.8567 5.05104 20.8567 4.75815 20.5638C4.46525 20.2709 4.46525 19.7961 4.75815 19.5032L6.17236 18.0889C6.46525 17.7961 6.94012 17.7961 7.23302 18.0889ZM12.3593 8.71926C11.5783 7.93821 11.5783 6.67188 12.3593 5.89083C13.1404 5.10978 14.4067 5.10978 15.1877 5.89083C15.9688 6.67188 15.9688 7.93821 15.1877 8.71926C14.4067 9.50031 13.1404 9.50031 12.3593 8.71926Z" fill="#9CB0FF"/>
</g>
<defs>
<clipPath id="clip0_113_2">
<rect width="22" height="22" fill="white"/>
</clipPath>
</defs>
</svg>
