<svg width="20" height="20" viewBox="0 0 20 20" fill="none" xmlns="http://www.w3.org/2000/svg">
<g clip-path="url(#clip0_113_4)">
<path d="M11.7309 1.51063L13.4909 5.03063C13.7309 5.52063 14.3709 5.99062 14.9109 6.08063L18.1009 6.61062C20.1409 6.95062 20.6209 8.43062 19.1509 9.89062L16.6709 12.3706C16.2509 12.7906 16.0209 13.6006 16.1509 14.1806L16.8609 17.2506C17.4209 19.6806 16.1309 20.6206 13.9809 19.3506L10.9909 17.5806C10.4509 17.2606 9.56089 17.2606 9.01089 17.5806L6.02089 19.3506C3.88089 20.6206 2.58089 19.6706 3.14089 17.2506L3.85089 14.1806C3.98089 13.6006 3.75089 12.7906 3.33089 12.3706L0.850885 9.89062C-0.609115 8.43062 -0.139115 6.95062 1.90089 6.61062L5.09089 6.08063C5.62089 5.99062 6.26089 5.52063 6.50089 5.03063L8.26089 1.51063C9.22089 -0.399376 10.7809 -0.399376 11.7309 1.51063Z" fill="#9CB0FF"/>
</g>
<defs>
<clipPath id="clip0_113_4">
<rect width="20" height="20" fill="white"/>
</clipPath>
</defs>
</svg>
